<svg width="1440" height="769" viewBox="0 0 1440 769" fill="none" xmlns="http://www.w3.org/2000/svg">
<g clip-path="url(#clip0_84_171)">
<mask id="mask0_84_171" style="mask-type:luminance" maskUnits="userSpaceOnUse" x="0" y="0" width="1440" height="769">
<path d="M1440 0H0V769H1440V0Z" fill="white"/>
</mask>
<g mask="url(#mask0_84_171)">
<path d="M752.406 728.784V681.279L696.465 655.408V706.263L644.364 730.358V680.393L589.384 705.819L536.321 681.28V634.663C537.936 634.322 539.13 633.156 539.13 631.755C539.13 631.481 539.071 631.22 538.984 630.968L589.862 607.439L590.342 607.218V555.475L535.365 580.903L481.34 555.918L427.319 580.901L374.258 556.362V507.286L429.239 481.858L374.258 456.431V405.574L318.797 431.224L318.317 431.446V480.527L268.879 457.663C268.963 457.41 269.025 457.149 269.025 456.875C269.025 455.476 267.83 454.308 266.216 453.967V357.385L319.757 332.623L320.237 332.403V280.659L264.776 306.31L264.296 306.531V356.502L211.236 381.043L159.13 356.944L211.716 332.622L212.196 332.402V280.657L156.735 306.308L156.255 306.53V405.58L106.817 382.716C106.902 382.464 106.963 382.204 106.963 381.928C106.963 380.529 105.769 379.361 104.154 379.02V331.516L51.0931 306.977L103.194 282.883L104.154 283.327V282.438L105.114 281.994L104.154 281.551V231.581L52.7962 207.83C52.8806 207.578 52.9421 207.316 52.9421 207.042C52.9421 205.375 51.2544 204.023 49.1731 204.023C47.0918 204.023 45.4042 205.375 45.4042 207.042C45.4042 208.442 46.6003 209.609 48.2131 209.951V256.566L-6.76801 281.995L47.2531 306.979L-5.32801 331.297L-5.80801 331.519V381.487L-6.76801 381.932L-5.80801 382.376V432.346L47.232 456.875L-5.37024 481.202L-5.85024 481.422V533.163L49.6128 507.514L50.0928 507.292V458.196L50.1331 458.215V407.359L100.52 384.055C100.984 384.431 101.576 384.7 102.234 384.838V432.339L155.295 456.877L102.714 481.194L102.234 481.416V531.404L51.8918 554.686C51.2083 554.134 50.2618 553.791 49.2154 553.791C47.1341 553.791 45.4464 555.143 45.4464 556.81C45.4464 558.209 46.6426 559.377 48.2554 559.718V656.243L-5.37217 681.046L-5.85217 681.268V733.011L-5.76577 732.971V782.09L48.2554 807.072V807.961L49.2173 807.516L50.1754 807.959V807.073L103.716 782.311L104.196 782.09V730.347L51.8899 754.538C51.2083 753.986 50.2618 753.643 49.2154 753.643C48.169 753.643 47.2224 753.986 46.5389 754.538L-2.92992 731.657L48.2554 707.986V708.035L103.235 682.609L158.216 708.035V657.164L211.715 632.423L212.195 632.203V584.701C213.807 584.36 215.004 583.193 215.004 581.793C215.004 580.126 213.316 578.774 211.235 578.774C209.153 578.774 207.466 580.126 207.466 581.793C207.466 582.067 207.525 582.328 207.612 582.581L156.733 606.11L156.253 606.332V655.389L104.195 631.315V532.25L157.213 507.731L212.195 533.157V482.301L262.581 458.999C263.046 459.374 263.637 459.642 264.296 459.782V507.286L315.654 531.038C315.569 531.29 315.508 531.551 315.508 531.825C315.508 532.099 315.567 532.359 315.654 532.611L264.776 556.142L264.296 556.364V656.24L214.214 679.404C213.531 678.636 212.415 678.133 211.15 678.133C209.069 678.133 207.381 679.485 207.381 681.152C207.381 682.552 208.577 683.719 210.19 684.061V733.009L264.211 708.024V757.105L320.152 782.976V731.231L267.145 706.717L319.277 682.607L369.677 705.914C369.592 706.166 369.531 706.428 369.531 706.702C369.531 708.369 371.219 709.721 373.3 709.721C375.383 709.721 377.069 708.369 377.069 706.702C377.069 705.302 375.873 704.136 374.26 703.793V607.218L427.321 582.677L479.422 606.775L426.841 631.094L426.361 631.314V681.282L425.401 681.726L426.361 682.171V731.251L372.82 756.012L372.34 756.232V807.973L427.801 782.324L428.281 782.102V733.026L480.382 757.12V758.008L481.342 757.563L536.323 782.991V734.6C536.982 734.46 537.575 734.192 538.042 733.815L588.426 757.116V807.958L642.447 782.974V782.985L697.908 757.336L698.388 757.114V708.037L747.828 730.901C747.742 731.154 747.683 731.414 747.683 731.69C747.683 733.357 749.37 734.709 751.452 734.709C753.533 734.709 755.22 733.357 755.22 731.69C755.215 730.292 754.02 729.126 752.406 728.784ZM158.175 307.419L210.276 283.323V331.513L158.175 355.609V307.419ZM48.1709 506.4L-3.93217 530.495V482.308L48.1709 458.213V506.4ZM102.276 733.008V781.198L50.1754 805.294V759.567C51.7882 759.226 52.9843 758.06 52.9843 756.659C52.9843 756.385 52.9229 756.124 52.8384 755.872L102.276 733.008ZM48.2554 759.567V805.292L-3.84577 781.198V733.009L45.5904 755.873C45.5059 756.125 45.4445 756.385 45.4445 756.659C45.4464 758.06 46.6426 759.226 48.2554 759.567ZM642.445 731.233L590.344 755.329V707.149L642.445 683.055V731.233ZM534.401 728.784C533.743 728.924 533.151 729.192 532.687 729.567L483.262 706.708L534.401 683.057V728.784ZM482.3 656.295V608.105L531.738 630.969C531.654 631.221 531.592 631.481 531.592 631.755C531.592 633.155 532.787 634.32 534.399 634.662V680.391L482.3 656.295ZM534.401 628.848C533.743 628.988 533.151 629.256 532.685 629.633L483.26 606.775L534.401 583.122V628.848ZM481.34 657.629L533.441 681.725L509.773 692.671L481.342 705.819L429.241 681.723L452.909 670.777L481.34 657.629ZM482.3 708.04L531.738 730.905C531.654 731.157 531.592 731.417 531.592 731.691C531.592 731.965 531.652 732.226 531.738 732.479L482.3 755.343V708.04ZM588.424 606.329L538.038 629.629C537.573 629.254 536.98 628.987 536.321 628.847V582.236L588.424 558.14V606.329ZM320.237 528.918V483.189L372.34 507.285V555.475L322.902 532.611C322.986 532.359 323.048 532.099 323.048 531.825C323.048 530.427 321.852 529.26 320.237 528.918ZM320.237 534.735C320.895 534.595 321.489 534.327 321.953 533.952L371.376 556.808L320.237 580.457V534.735ZM373.3 505.953L321.197 481.857L346.75 470.039L373.298 457.761L425.399 481.857L373.3 505.953ZM320.237 432.335L372.34 408.237V456.429L320.237 480.525V432.335ZM266.216 307.419L318.317 283.323V331.513L266.216 355.609V307.419ZM264.296 406.467L247.252 414.35L212.196 430.562V382.371L264.298 358.276L264.296 406.467ZM210.276 480.525L184.226 468.478L158.175 456.431V408.244L184.226 420.291L210.276 432.338V480.525ZM158.175 358.279L210.276 382.373V430.562L184.226 418.514L158.175 406.467V358.279ZM102.232 379.022C101.576 379.16 100.984 379.429 100.518 379.803L50.1312 356.499V308.309L102.232 332.405V379.022ZM102.232 232.47V280.662L50.1312 256.565V209.951C50.7898 209.811 51.3811 209.543 51.8458 209.168L102.232 232.47ZM49.1712 257.898L101.272 281.995L50.1331 305.647V305.645L49.1731 306.088L48.2131 305.645V305.647L-2.92801 281.994L49.1712 257.898ZM-3.88801 332.406L48.2131 308.311V356.501L-3.88801 380.597V332.406ZM-3.88801 383.26L48.2131 407.358V455.548L-3.88801 431.452V383.26ZM49.1731 406.026L-2.92801 381.928L20.7398 370.982L49.1712 357.834L99.5712 381.143C99.4867 381.395 99.4253 381.656 99.4253 381.93C99.4253 382.204 99.4848 382.464 99.5712 382.717L49.1731 406.026ZM104.152 384.837C104.811 384.697 105.402 384.429 105.869 384.054L156.255 407.356V455.543L104.152 431.449V384.837ZM104.152 482.303L156.255 458.209V506.396L104.152 530.49V482.303ZM50.1754 559.717C51.7882 559.375 52.9843 558.209 52.9843 556.808C52.9843 556.535 52.9248 556.275 52.8384 556.022L102.275 533.158V581.347L50.1734 605.441L50.1754 559.717ZM102.276 631.311L50.1754 655.405V607.218L102.276 583.123V631.311ZM48.1709 706.248L-3.93217 730.344V682.154L48.1709 658.056V706.248ZM50.1754 657.183L102.276 633.089V681.276L50.1754 705.37V657.183ZM158.175 607.218L208.562 583.917C209.027 584.292 209.62 584.56 210.276 584.7V631.312L158.175 655.406V607.218ZM156.296 658.05V705.368L104.195 681.274V633.087L156.253 657.163V658.07L156.296 658.05ZM210.276 530.49L158.175 506.396V458.209L184.226 470.256L210.276 482.303V530.49ZM212.196 480.525V432.339L241.968 418.57L264.296 408.244V453.967C262.683 454.308 261.487 455.474 261.487 456.875C261.487 457.149 261.548 457.41 261.633 457.663L212.196 480.525ZM266.216 506.399V459.784C266.874 459.644 267.466 459.376 267.93 459.001L318.317 482.303V528.918C317.66 529.057 317.069 529.326 316.602 529.699L266.216 506.399ZM266.216 557.254L316.602 533.952C317.067 534.327 317.658 534.597 318.317 534.735V581.346L317.357 581.79L317.359 581.792L266.216 605.443V557.254ZM266.216 657.183L318.317 633.089V681.276L266.216 705.37V657.183ZM318.317 631.311L266.216 655.405V607.218L318.317 583.123V631.311ZM212.112 730.344V684.061C213.725 683.719 214.921 682.554 214.921 681.152C214.921 681.056 214.896 680.965 214.884 680.871L264.211 658.056V706.248L212.112 730.344ZM318.232 780.311L266.131 756.215V708.024L318.232 732.12V780.311ZM372.34 703.793C371.681 703.933 371.09 704.201 370.625 704.576L320.237 681.276V633.09L372.34 657.186V703.793ZM320.237 631.311V583.12L372.34 607.218V655.405L320.237 631.311ZM373.3 605.886L321.197 581.788L373.296 557.694L374.26 558.14V558.137L425.401 581.788L373.3 605.886ZM481.34 557.693L533.441 581.788L482.3 605.441L481.34 605.886L480.38 605.441L429.239 581.788L481.34 557.693ZM428.281 632.201L480.382 608.105V656.295L428.281 680.391V632.201ZM426.361 781.212L374.26 805.306V757.119L426.361 733.025V781.212ZM428.281 731.248V683.057L480.382 707.152V755.344L428.281 731.248ZM483.262 756.676L532.687 733.817C533.151 734.192 533.745 734.46 534.401 734.6V780.327L483.262 756.676ZM536.321 728.784V683.057L588.424 707.151V755.339L538.986 732.476C539.071 732.223 539.13 731.965 539.13 731.691C539.13 730.292 537.936 729.126 536.321 728.784ZM590.344 805.292V757.116L642.445 733.02V781.199L590.344 805.292ZM696.465 756.227L644.364 780.321V732.133L696.465 708.038V756.227ZM698.385 706.262V658.072L750.486 682.168V728.784C749.829 728.924 749.238 729.19 748.773 729.566L698.385 706.262ZM1455.68 415.854L1401.66 390.869L1454.24 366.55L1454.72 366.329V316.36L1455.68 315.917L1454.72 315.473V265.505L1401.68 240.975L1454.28 216.649L1454.76 216.429V164.689L1399.3 190.338L1398.82 190.56V239.656L1398.78 239.636V290.493L1348.39 313.795C1347.93 313.42 1347.34 313.151 1346.68 313.012V215.551L1292.66 190.567V140.602L1241.3 116.851C1241.38 116.596 1241.45 116.333 1241.45 116.057C1241.45 115.784 1241.39 115.522 1241.3 115.27L1292.18 91.7417L1292.66 91.5202V42.4611L1344.72 66.5354V167.353L1397.02 143.163C1397.71 143.715 1398.65 144.057 1399.7 144.057C1401.78 144.057 1403.47 142.705 1403.47 141.038C1403.47 139.638 1402.27 138.471 1400.66 138.129V41.6075L1454.29 16.8057L1454.77 16.5842V-35.1618L1400.66 -10.137V-10.1862L1345.68 15.24L1290.7 -10.1862V40.6847L1237.2 65.4265L1236.72 65.648V113.149C1235.11 113.491 1233.91 114.658 1233.91 116.057C1233.91 117.457 1235.11 118.623 1236.72 118.966V166.475L1290.74 191.456V240.534L1238.64 264.628V215.543L1184.62 190.558V189.669L1183.66 190.114L1182.7 189.671V190.557L1129.16 215.32L1128.68 215.541V267.286L1180.98 243.096C1181.66 243.648 1182.61 243.993 1183.66 243.993C1184.71 243.993 1185.65 243.65 1186.34 243.096L1236.72 266.395V367.222L1291.7 341.794L1344.76 366.332L1397.83 390.87L1345.72 414.966L1344.76 414.522V415.411L1343.8 415.855L1344.76 416.3V466.268L1398.79 491.251V537.866C1397.17 538.208 1395.98 539.374 1395.98 540.775C1395.98 542.442 1397.66 543.794 1399.75 543.794C1401.83 543.794 1403.51 542.442 1403.51 540.775C1403.51 540.501 1403.45 540.239 1403.37 539.986L1454.25 516.456L1454.73 516.234V464.491L1400.71 489.476V441.285L1455.68 415.854ZM1400.75 191.447L1452.85 167.353V215.54L1400.75 239.634V191.447ZM1452.8 365.441L1400.7 389.537V341.347L1452.8 317.251V365.441ZM1452.8 314.587L1400.7 290.491V242.3L1452.8 266.397V314.587ZM1399.74 291.823L1451.84 315.919L1428.17 326.865L1399.74 340.015L1349.34 316.706C1349.43 316.454 1349.49 316.194 1349.49 315.919C1349.49 315.644 1349.43 315.384 1349.34 315.132L1399.74 291.823ZM1344.76 266.403V313.012C1344.1 313.152 1343.51 313.42 1343.04 313.797L1318.71 302.543L1292.66 290.496V242.309L1318.71 254.356L1344.76 266.403ZM1346.64 66.5354L1398.74 42.4411V90.6297L1346.64 114.724V66.5354ZM1346.64 164.689V116.502L1398.74 92.4077V138.131C1397.13 138.474 1395.93 139.64 1395.93 141.039C1395.93 141.313 1395.99 141.574 1396.08 141.827L1346.64 164.689ZM1400.75 -8.40056L1452.85 -32.4964V15.6953L1400.75 39.7911V-8.40056ZM1398.74 40.6647L1346.64 64.759V16.5719L1398.74 -7.52236V40.6647ZM1292.62 -7.52236L1344.72 16.5719V64.759L1292.66 40.6847V39.7773L1292.62 39.7957V-7.52236H1292.62ZM1290.74 42.4411V90.6297L1240.35 113.93C1239.89 113.555 1239.3 113.288 1238.64 113.148V66.5354L1290.74 42.4411ZM1238.64 165.584V118.964C1239.29 118.826 1239.88 118.56 1240.35 118.188L1290.74 141.491V189.678L1238.64 165.584ZM1344.76 216.438V264.625L1318.71 252.578L1292.66 240.531V192.342L1344.76 216.438ZM1130.6 264.619V216.429L1182.7 192.333V238.064C1181.09 238.405 1179.89 239.571 1179.89 240.972C1179.89 241.246 1179.95 241.504 1180.03 241.757L1130.6 264.619ZM1184.62 238.064V192.335L1236.72 216.43V264.618L1187.28 241.755C1187.37 241.504 1187.43 241.245 1187.43 240.971C1187.43 239.573 1186.23 238.405 1184.62 238.064ZM1238.64 266.403L1290.74 242.309V290.493L1238.64 314.589V266.403ZM1238.64 316.367L1290.74 292.272V340.462L1238.64 364.558V316.367ZM1292.66 340.459V292.272L1318.71 304.319L1342.1 315.135C1342.01 315.387 1341.95 315.645 1341.95 315.919C1341.95 317.319 1343.15 318.484 1344.76 318.827V364.554L1292.66 340.459ZM1346.68 318.826C1347.34 318.686 1347.93 318.418 1348.4 318.043L1398.78 341.345V389.535L1346.68 365.44V318.826ZM1398.78 392.201L1399.74 391.758L1400.7 392.202V392.201L1451.84 415.854L1399.74 439.95L1347.64 415.854L1398.78 392.201ZM1346.68 417.187L1398.78 441.283V489.473L1346.68 465.377V417.187ZM1452.8 467.154V515.344L1402.42 538.646C1401.95 538.271 1401.36 538.003 1400.7 537.865V491.249L1452.8 467.154ZM1133.41 166.021C1133.41 165.747 1133.35 165.486 1133.26 165.233L1184.14 141.704L1184.62 141.482V41.6044L1234.7 18.4406C1235.39 19.2081 1236.5 19.711 1237.76 19.711C1239.85 19.711 1241.53 18.3591 1241.53 16.6919C1241.53 15.2923 1240.34 14.125 1238.72 13.7835V-35.1648L1184.7 -10.1769V-59.2576L1128.76 -85.1283V-33.3838L1181.77 -8.86964L1129.64 15.24L1079.24 -8.06682C1079.32 -8.31905 1079.38 -8.57897 1079.38 -8.85428C1079.38 -10.5215 1077.7 -11.8734 1075.61 -11.8734C1073.53 -11.8734 1071.85 -10.5215 1071.85 -8.85428C1071.85 -7.4547 1073.04 -6.28735 1074.65 -5.94591V39.7758L1074.65 90.6328L1021.59 115.17L969.492 91.0742L1022.07 66.7538L1022.55 66.5323V16.5673L1023.51 16.1229L1022.55 15.6784V-33.4007L1076.09 -58.161L1076.57 -58.3825V-110.125L1021.11 -84.4747L1020.63 -84.2547V-35.1771L968.533 -59.273V-60.1604L967.573 -59.7159L912.591 -85.1452V-36.7536C911.933 -36.6136 911.34 -36.3445 910.873 -35.9692L860.488 -59.2684V-110.112L806.467 -85.1268V-85.1375L751.008 -59.4883L750.528 -59.2668V-10.1908L698.427 -34.2851V-35.1725L697.467 -34.7296L696.507 -35.1725V-34.2851L643.448 -9.74938L588.465 -35.1741V15.6784L536.365 39.7727V-9.30798L480.424 -35.1787L426.403 -60.1619V-9.30491L376.017 13.9958C375.333 13.4452 374.388 13.1022 373.342 13.1022C371.261 13.1022 369.573 14.4541 369.573 16.1213C369.573 17.7885 371.261 19.1404 373.342 19.1404C374.388 19.1404 375.335 18.7974 376.017 18.2468L426.403 41.5491V92.4061L481.864 66.7538L482.344 66.5323V17.4532L534.445 41.5475V92.4L586.75 68.2103C587.215 68.5856 587.808 68.8547 588.465 68.9931V116.494L644.408 142.363V92.4L698.429 117.383V65.6403L645.37 41.103L697.465 17.0103L752.448 42.4396V-8.41441L804.549 -32.5087V65.6526L751.008 90.4144L750.528 90.6359V142.382L802.835 118.191C803.518 118.743 804.463 119.084 805.509 119.084C807.59 119.084 809.278 117.732 809.278 116.065C809.278 114.666 808.082 113.5 806.469 113.157V66.537L860.01 41.7736L860.49 41.5521V-7.52697L912.593 16.5673V63.1841C910.98 63.5255 909.784 64.6913 909.784 66.0925C909.784 66.3662 909.846 66.6262 909.93 66.8799L859.052 90.4098L858.572 90.6297V142.371L913.553 116.945L967.576 141.93L1021.6 116.946L1075.62 141.93L1128.68 117.391V163.114C1127.07 163.456 1125.87 164.621 1125.87 166.022C1125.87 167.69 1127.56 169.042 1129.64 169.042C1131.72 169.04 1133.41 167.688 1133.41 166.021ZM1182.7 140.595L1132.31 163.895C1131.85 163.52 1131.25 163.253 1130.6 163.113V116.502L1131.56 116.057L1182.7 92.4061V140.595ZM1076.57 42.4411L1128.68 66.5354V114.726L1076.57 90.6297V42.4411ZM1130.6 66.5354L1182.7 42.4411V90.6297L1130.6 114.724V66.5354ZM1182.7 40.6647L1130.6 64.759V16.5719L1182.7 -7.52236V40.6647ZM1236.8 -32.4964V13.7882C1235.19 14.1296 1234 15.2954 1234 16.695C1234 16.7919 1234.02 16.8826 1234.03 16.978L1184.7 39.7911V-8.40056L1236.8 -32.4964ZM1130.68 -82.4645L1182.78 -58.3686V-10.1785L1130.68 -34.2743V-82.4645ZM1076.58 -5.94591C1077.23 -6.08587 1077.83 -6.35349 1078.29 -6.72875L1128.68 16.5735V64.759L1076.58 40.6647V-5.94591ZM967.574 40.2187L915.473 16.1229L939.141 5.1769L967.573 -7.97299L1019.67 16.1229L996.006 27.0688L967.574 40.2187ZM914.513 -30.9369C915.17 -31.0768 915.761 -31.3444 916.228 -31.7197L965.654 -8.86196L914.513 14.7909V-30.9369ZM966.612 -10.1923L917.174 -33.0562C917.259 -33.3085 917.32 -33.5699 917.32 -33.8437C917.32 -34.1175 917.259 -34.3774 917.174 -34.6296L966.612 -57.4935V-10.1923ZM966.612 41.5506V89.7423L917.174 66.8768C917.259 66.6246 917.32 66.3647 917.32 66.0925C917.32 64.6929 916.126 63.5271 914.511 63.1841V17.4548L966.612 41.5506ZM914.513 68.9993C915.172 68.8593 915.763 68.5917 916.23 68.2149L965.654 91.0742L914.513 114.726V68.9993ZM1020.63 65.6449L968.533 89.7423V41.5506L1020.63 17.4548V65.6449ZM1022.55 -83.3642L1074.65 -107.459V-59.2699L1022.55 -35.1756V-83.3642ZM1020.63 -33.3992V14.7909L968.533 -9.30491V-57.4951L1020.63 -33.3992ZM965.653 -58.827L916.228 -35.9677C915.763 -36.3445 915.17 -36.6121 914.511 -36.7521V-82.4799L965.653 -58.827ZM858.57 -107.446V-59.2668L806.469 -35.1725V-83.3504L858.57 -107.446ZM696.509 -32.5102V15.6768L644.408 39.7711V-8.41594L696.509 -32.5102ZM590.385 -32.5102L642.488 -8.41594V39.7711L616.437 27.724L590.387 15.6768V-32.5102H590.385ZM642.488 89.7346L616.437 77.6875L593.05 66.8722C593.136 66.62 593.195 66.3601 593.195 66.0848C593.195 64.6852 591.999 63.5179 590.387 63.1764V17.4517L616.437 29.4988L642.488 41.546V89.7346ZM534.445 39.7711L482.344 15.6753V-32.5149L534.445 -8.41901V39.7711ZM428.323 -57.4981L480.424 -33.4007V14.7894L428.323 -9.30644V-57.4981ZM376.965 15.3339L427.363 -7.97453L479.464 16.1213L455.796 27.0673L427.363 40.2172L376.965 16.9088C377.05 16.6565 377.111 16.3951 377.111 16.1213C377.111 15.8475 377.05 15.5861 376.965 15.3339ZM480.424 65.6434L428.323 89.7408V41.5491L480.424 17.4532V65.6434ZM536.365 89.7346V41.5475L588.467 17.4532V63.178C586.854 63.5194 585.658 64.6867 585.658 66.0863C585.658 66.3601 585.719 66.62 585.804 66.8738L536.365 89.7346ZM642.488 139.701L590.385 115.607V68.9947C591.043 68.8563 591.635 68.5871 592.101 68.2118L616.437 79.4654L642.488 91.5125V139.701ZM696.509 114.719L644.408 90.6236V42.435L696.509 66.5293V114.719ZM750.528 39.7758L698.427 15.6799V-32.5102L750.528 -8.41441V39.7758ZM752.448 -10.1908V-58.3779L804.549 -82.4722V-34.2851L752.448 -10.1908ZM858.57 -57.4812V-9.30336L806.469 14.7909V-33.3869L858.57 -57.4812ZM752.448 139.715V91.5233L804.549 67.4275V113.155C802.936 113.497 801.74 114.662 801.74 116.064C801.74 116.339 801.802 116.599 801.886 116.851L752.448 139.715ZM858.57 40.6632L806.469 64.7606V16.5689L858.57 -7.52697V40.6632ZM860.49 -57.4904L909.928 -34.6281C909.844 -34.3758 909.782 -34.1159 909.782 -33.8437C909.782 -32.4441 910.979 -31.2768 912.591 -30.9353V14.7909L860.49 -9.30336V-57.4904ZM860.49 91.5202L910.877 68.218C911.341 68.5932 911.935 68.8609 912.591 69.0008V115.613L860.488 139.707V91.5202H860.49ZM967.573 140.155L915.471 116.059L966.612 92.4077L967.573 91.9632L968.533 92.4077L1019.67 116.059L967.573 140.155ZM1023.51 116.059L1075.61 91.9632L1127.72 116.059L1075.61 140.155L1023.51 116.059Z" fill="#F0F0F0"/>
</g>
</g>
<defs>
<clipPath id="clip0_84_171">
<rect width="1440" height="769" fill="white"/>
</clipPath>
</defs>
</svg>
