<svg width="1440" height="585" viewBox="0 0 1440 585" fill="none" xmlns="http://www.w3.org/2000/svg">
<g clip-path="url(#clip0_84_184)">
<mask id="mask0_84_184" style="mask-type:luminance" maskUnits="userSpaceOnUse" x="-58" y="-10" width="1668" height="953">
<path d="M1609.55 -10H-58V942.743H1609.55V-10Z" fill="white"/>
</mask>
<g mask="url(#mask0_84_184)">
<path d="M1735.93 1067.63H-184.382V-134.89H1735.93L1735.93 1067.63ZM-181.9 1065.15H1733.45V-132.409H-181.9V1065.15Z" fill="#F6EFEF"/>
<path d="M1734.69 525.133H-183.141V527.614H1734.69V525.133Z" fill="#F6EFEF"/>
<path d="M1734.69 465.131H-183.141V467.612H1734.69V465.131Z" fill="#F6EFEF"/>
<path d="M1734.69 405.13H-183.141V407.611H1734.69V405.13Z" fill="#F6EFEF"/>
<path d="M1734.69 345.126H-183.141V347.607H1734.69V345.126Z" fill="#F6EFEF"/>
<path d="M1734.69 285.124H-183.141V287.605H1734.69V285.124Z" fill="#F6EFEF"/>
<path d="M1734.69 225.122H-183.141V227.603H1734.69V225.122Z" fill="#F6EFEF"/>
<path d="M1734.69 165.12H-183.141V167.601H1734.69V165.12Z" fill="#F6EFEF"/>
<path d="M1734.69 105.118H-183.141V107.599H1734.69V105.118Z" fill="#F6EFEF"/>
<path d="M1734.69 45.116H-183.141V47.5971H1734.69V45.116Z" fill="#F6EFEF"/>
<path d="M1387.23 -133.649H1384.75V1066.39H1387.23V-133.649Z" fill="#F6EFEF"/>
<path d="M1329.12 -133.649H1326.64V1066.39H1329.12V-133.649Z" fill="#F6EFEF"/>
<path d="M1271 -133.649H1268.52V1066.39H1271V-133.649Z" fill="#F6EFEF"/>
<path d="M1212.89 -133.649H1210.41V1066.39H1212.89V-133.649Z" fill="#F6EFEF"/>
<path d="M1154.77 -133.649H1152.29V1066.39H1154.77V-133.649Z" fill="#F6EFEF"/>
<path d="M1096.66 -133.649H1094.17V1066.39H1096.66V-133.649Z" fill="#F6EFEF"/>
<path d="M1038.54 -133.649H1036.06V1066.39H1038.54V-133.649Z" fill="#F6EFEF"/>
<path d="M980.422 -133.649H977.94V1066.39H980.422V-133.649Z" fill="#F6EFEF"/>
<path d="M922.306 -133.649H919.824V1066.39H922.306V-133.649Z" fill="#F6EFEF"/>
<path d="M864.19 -133.649H861.708V1066.39H864.19V-133.649Z" fill="#F6EFEF"/>
<path d="M806.074 -133.649H803.592V1066.39H806.074V-133.649Z" fill="#F6EFEF"/>
<path d="M747.958 -133.649H745.476V1066.39H747.958V-133.649Z" fill="#F6EFEF"/>
<path d="M689.842 -133.649H687.361V1066.39H689.842V-133.649Z" fill="#F6EFEF"/>
<path d="M631.726 -133.649H629.245V1066.39H631.726V-133.649Z" fill="#F6EFEF"/>
<path d="M573.61 -133.649H571.128V1066.39H573.61V-133.649Z" fill="#F6EFEF"/>
<path d="M515.493 -133.649H513.011V1066.39H515.493V-133.649Z" fill="#F6EFEF"/>
<path d="M457.376 -133.649H454.895V1066.39H457.376V-133.649Z" fill="#F6EFEF"/>
<path d="M399.261 -133.649H396.779V1066.39H399.261V-133.649Z" fill="#F6EFEF"/>
<path d="M341.145 -133.649H338.664V1066.39H341.145V-133.649Z" fill="#F6EFEF"/>
<path d="M283.029 -133.649H280.548V1066.39H283.029V-133.649Z" fill="#F6EFEF"/>
<path d="M224.913 -133.649H222.431V1066.39H224.913V-133.649Z" fill="#F6EFEF"/>
<path d="M166.797 -133.649H164.315V1066.39H166.797V-133.649Z" fill="#F6EFEF"/>
<path d="M108.681 -133.649H106.2V1066.39H108.681V-133.649Z" fill="#F6EFEF"/>
<path d="M50.5656 -133.649H48.0841V1066.39H50.5656V-133.649Z" fill="#F6EFEF"/>
</g>
</g>
<defs>
<clipPath id="clip0_84_184">
<rect width="1503" height="585" fill="white" transform="translate(-58)"/>
</clipPath>
</defs>
</svg>
