<svg width="166" height="36" viewBox="0 0 166 36" fill="none" xmlns="http://www.w3.org/2000/svg">
<g clip-path="url(#clip0_138_477)">
<path d="M165.067 24.0557C164.552 24.0557 164.134 24.4821 164.134 25.007C164.134 25.532 164.552 25.9583 165.067 25.9583C165.582 25.9583 166 25.532 166 25.007C166 24.4821 165.582 24.0557 165.067 24.0557ZM165.067 25.8075C164.633 25.8075 164.282 25.4474 164.282 25.007C164.282 24.5645 164.635 24.2066 165.067 24.2066C165.501 24.2066 165.854 24.5666 165.854 25.007C165.854 25.4475 165.501 25.8075 165.067 25.8075ZM165.371 24.8441C165.371 24.6711 165.25 24.5686 165.073 24.5686H164.775V25.4354H164.921V25.1217H165.081L165.234 25.4354H165.392L165.223 25.0895C165.313 25.0472 165.371 24.9627 165.371 24.8441ZM165.067 24.9869H164.923V24.6994H165.067C165.166 24.6994 165.225 24.7496 165.225 24.8421C165.225 24.9366 165.164 24.9869 165.067 24.9869ZM52.6346 14.4282V12.1274H49.1745V25.8155H52.6346V17.6079C52.6346 16.1217 53.5697 15.3916 55.0276 15.3916H56.9214V12.1275H55.3037C54.0372 12.1274 52.9365 12.8012 52.6346 14.4282ZM60.1626 6.71338C58.979 6.71338 58.0715 7.66669 58.0715 8.87339C58.0715 10.0519 58.979 11.0052 60.1626 11.0052C61.3462 11.0052 62.2537 10.0519 62.2537 8.87339C62.2537 7.66664 61.3462 6.71338 60.1626 6.71338ZM58.4364 25.8155H61.8888V12.1274H58.4364V25.8155ZM78.3335 18.9715C78.3335 22.8792 75.2264 26.0468 71.3934 26.0468C69.8467 26.0468 68.4441 25.53 67.3196 24.6571V29.8339H63.8673V12.1274H67.3196V13.2859C68.4441 12.413 69.8467 11.8961 71.3934 11.8961C75.2264 11.8961 78.3335 15.0638 78.3335 18.9715ZM74.8595 18.9715C74.8595 16.8497 73.1709 15.1281 71.0896 15.1281C69.0083 15.1281 67.3197 16.8497 67.3197 18.9715C67.3197 21.0933 69.0084 22.8148 71.0896 22.8148C73.1709 22.8148 74.8595 21.0953 74.8595 18.9715ZM138.336 17.7708L136.322 17.2077C134.996 16.8557 134.482 16.4414 134.482 15.7275C134.482 15.0316 135.208 14.5449 136.245 14.5449C137.234 14.5449 138.009 15.2045 138.009 16.0492V16.1276H141.191V16.0492C141.191 13.5654 139.204 11.8961 136.245 11.8961C133.316 11.8961 131.187 13.5634 131.187 15.8621C131.187 17.6501 132.349 18.9975 134.377 19.5566L136.306 20.0936C137.772 20.5079 138.317 20.9665 138.317 21.7891C138.317 22.6559 137.529 23.2392 136.358 23.2392C135.136 23.2392 134.314 22.4507 134.314 21.2803V21.2018H130.937V21.2803C130.937 24.0879 133.154 26.0508 136.33 26.0508C139.39 26.0508 141.611 24.1341 141.611 21.4955C141.611 20.2003 141.043 18.5069 138.336 17.7708ZM90.5803 12.1274H94.0325V25.8155H90.5803V24.657C89.4558 25.5299 88.0531 26.0468 86.5065 26.0468C82.6736 26.0468 79.5665 22.8792 79.5665 18.9714C79.5665 15.0637 82.6736 11.8961 86.5065 11.8961C88.0531 11.8961 89.4558 12.413 90.5803 13.2858V12.1274ZM90.5803 18.9715C90.5803 16.8477 88.8916 15.1281 86.8103 15.1281C84.7291 15.1281 83.0405 16.8497 83.0405 18.9715C83.0405 21.0933 84.7291 22.8148 86.8103 22.8148C88.8935 22.8148 90.5803 21.0953 90.5803 18.9715ZM106.498 7.25638H109.951V25.8175H106.498V24.659C105.374 25.5319 103.971 26.0488 102.425 26.0488C98.5915 26.0488 95.4845 22.8812 95.4845 18.9734C95.4845 15.0657 98.5915 11.8981 102.425 11.8981C103.971 11.8981 105.374 12.415 106.498 13.2878V7.25638ZM106.498 18.9715C106.498 16.8497 104.81 15.1281 102.728 15.1281C100.647 15.1281 98.9585 16.8497 98.9585 18.9715C98.9585 21.0933 100.645 22.8148 102.728 22.8148C104.81 22.8148 106.498 21.0953 106.498 18.9715ZM125.979 25.8155H129.431V12.1274H125.979V25.8155ZM127.705 6.71338C126.522 6.71338 125.614 7.66669 125.614 8.87339C125.614 10.0519 126.522 11.0052 127.705 11.0052C128.889 11.0052 129.796 10.0519 129.796 8.87339C129.796 7.66664 128.889 6.71338 127.705 6.71338ZM156.533 18.9715C156.533 22.8792 153.426 26.0468 149.593 26.0468C145.76 26.0468 142.653 22.8792 142.653 18.9715C142.653 15.0637 145.76 11.8961 149.593 11.8961C153.426 11.8961 156.533 15.0638 156.533 18.9715ZM153.363 18.9715C153.363 16.8497 151.674 15.1281 149.593 15.1281C147.511 15.1281 145.823 16.8497 145.823 18.9715C145.823 21.0933 147.51 22.8148 149.593 22.8148C151.674 22.8148 153.363 21.0953 153.363 18.9715ZM50.867 7.25638H37.624V10.3958H42.5263V25.8155H45.9668V10.3958H50.869V7.25638H50.867ZM117.84 22.0667L114.768 12.1275H111.142L115.748 25.8155H119.903L124.537 12.1275H120.911L117.84 22.0667ZM161.591 14.4282V12.1274H158.131V25.8155H161.591V17.6079C161.591 16.1217 162.526 15.3916 163.984 15.3916H165.878V12.1275H164.26C162.993 12.1274 161.895 12.8012 161.591 14.4282Z" fill="black"/>
<path d="M17.6562 36C27.4074 36 35.3122 27.9411 35.3122 18C35.3122 8.05887 27.4074 0 17.6562 0C7.9051 0 0.000244141 8.05887 0.000244141 18C0.000244141 27.9411 7.9051 36 17.6562 36Z" fill="#34E0A1"/>
<path d="M28.5613 14.4884L30.6919 12.1253H25.9671C23.6019 10.4781 20.7453 9.5188 17.656 9.5188C14.5706 9.5188 11.722 10.4802 9.36062 12.1253H4.62408L6.75464 14.4884C5.44871 15.7032 4.63002 17.4529 4.63002 19.3957C4.63002 23.0621 7.54577 26.0346 11.1421 26.0346C12.8505 26.0346 14.4069 25.3629 15.5689 24.2648L17.656 26.5816L19.7432 24.2668C20.9052 25.3649 22.4596 26.0346 24.168 26.0346C27.7643 26.0346 30.684 23.0621 30.684 19.3957C30.6859 17.4509 29.8673 15.7012 28.5613 14.4884ZM11.144 23.8887C8.70961 23.8887 6.73693 21.8775 6.73693 19.3957C6.73693 16.9139 8.70966 14.9027 11.144 14.9027C13.5783 14.9027 15.5511 16.9139 15.5511 19.3957C15.5511 21.8775 13.5783 23.8887 11.144 23.8887ZM17.658 19.265C17.658 16.3085 15.5491 13.7705 12.7656 12.6864C14.2708 12.0448 15.922 11.6889 17.656 11.6889C19.39 11.6889 21.0431 12.0448 22.5484 12.6864C19.7669 13.7725 17.658 16.3086 17.658 19.265ZM24.17 23.8887C21.7356 23.8887 19.7629 21.8775 19.7629 19.3957C19.7629 16.9139 21.7356 14.9027 24.17 14.9027C26.6044 14.9027 28.5771 16.9139 28.5771 19.3957C28.5771 21.8775 26.6044 23.8887 24.17 23.8887ZM24.17 17.0386C22.8936 17.0386 21.8599 18.0924 21.8599 19.3937C21.8599 20.6949 22.8936 21.7488 24.17 21.7488C25.4463 21.7488 26.4801 20.6949 26.4801 19.3937C26.48 18.0945 25.4463 17.0386 24.17 17.0386ZM13.4541 19.3957C13.4541 20.6969 12.4203 21.7508 11.144 21.7508C9.86766 21.7508 8.83393 20.6969 8.83393 19.3957C8.83393 18.0945 9.86766 17.0406 11.144 17.0406C12.4203 17.0386 13.4541 18.0945 13.4541 19.3957Z" fill="#221717"/>
</g>
<defs>
<clipPath id="clip0_138_477">
<rect width="166" height="36" fill="white"/>
</clipPath>
</defs>
</svg>
