<svg width="1440" height="1352" viewBox="0 0 1440 1352" fill="none" xmlns="http://www.w3.org/2000/svg">
<g clip-path="url(#clip0_138_67)">
<path d="M75.519 0L-15.7342 91.26" stroke="#F8F8F8" stroke-width="3.5"/>
<path d="M166.772 0L75.519 91.26" stroke="#F8F8F8" stroke-width="3.5"/>
<path d="M258.025 0L166.772 91.26" stroke="#F8F8F8" stroke-width="3.5"/>
<path d="M258.025 0L349.278 91.26" stroke="#F8F8F8" stroke-width="3.5"/>
<path d="M440.532 0L349.279 91.26" stroke="#F8F8F8" stroke-width="3.5"/>
<path d="M531.785 0L440.532 91.26" stroke="#F8F8F8" stroke-width="3.5"/>
<path d="M531.785 0L623.038 91.26" stroke="#F8F8F8" stroke-width="3.5"/>
<path d="M714.291 0L623.038 91.26" stroke="#F8F8F8" stroke-width="3.5"/>
<path d="M805.544 0L714.291 91.26" stroke="#F8F8F8" stroke-width="3.5"/>
<path d="M896.797 0L805.544 91.26" stroke="#F8F8F8" stroke-width="3.5"/>
<path d="M896.797 0L988.051 91.26" stroke="#F8F8F8" stroke-width="3.5"/>
<path d="M1079.3 0L988.051 91.26" stroke="#F8F8F8" stroke-width="3.5"/>
<path d="M1170.56 0L1079.3 91.26" stroke="#F8F8F8" stroke-width="3.5"/>
<path d="M1261.81 0L1170.56 91.26" stroke="#F8F8F8" stroke-width="3.5"/>
<path d="M1353.06 0L1261.81 91.26" stroke="#F8F8F8" stroke-width="3.5"/>
<path d="M1444.32 0L1353.06 91.26" stroke="#F8F8F8" stroke-width="3.5"/>
<path opacity="0.94" d="M75.519 91.26L-15.7342 182.52" stroke="#F8F8F8" stroke-width="3.5"/>
<path opacity="0.94" d="M166.772 91.26L75.519 182.52" stroke="#F8F8F8" stroke-width="3.5"/>
<path opacity="0.94" d="M166.772 91.26L258.025 182.52" stroke="#F8F8F8" stroke-width="3.5"/>
<path opacity="0.94" d="M258.025 91.26L349.278 182.52" stroke="#F8F8F8" stroke-width="3.5"/>
<path opacity="0.94" d="M440.532 91.26L349.279 182.52" stroke="#F8F8F8" stroke-width="3.5"/>
<path opacity="0.94" d="M531.785 91.26L440.532 182.52" stroke="#F8F8F8" stroke-width="3.5"/>
<path opacity="0.94" d="M623.038 91.26L531.785 182.52" stroke="#F8F8F8" stroke-width="3.5"/>
<path opacity="0.94" d="M623.038 91.26L714.291 182.52" stroke="#F8F8F8" stroke-width="3.5"/>
<path opacity="0.94" d="M805.544 91.26L714.291 182.52" stroke="#F8F8F8" stroke-width="3.5"/>
<path opacity="0.94" d="M896.797 91.26L805.544 182.52" stroke="#F8F8F8" stroke-width="3.5"/>
<path opacity="0.94" d="M896.797 91.26L988.051 182.52" stroke="#F8F8F8" stroke-width="3.5"/>
<path opacity="0.94" d="M988.051 91.26L1079.3 182.52" stroke="#F8F8F8" stroke-width="3.5"/>
<path opacity="0.94" d="M1170.56 91.26L1079.3 182.52" stroke="#F8F8F8" stroke-width="3.5"/>
<path opacity="0.94" d="M1261.81 91.26L1170.56 182.52" stroke="#F8F8F8" stroke-width="3.5"/>
<path opacity="0.94" d="M1353.06 91.26L1261.81 182.52" stroke="#F8F8F8" stroke-width="3.5"/>
<path opacity="0.94" d="M1353.06 91.26L1444.32 182.52" stroke="#F8F8F8" stroke-width="3.5"/>
<path opacity="0.87" d="M75.519 182.52L-15.7342 273.78" stroke="#F8F8F8" stroke-width="3.5"/>
<path opacity="0.87" d="M166.772 182.52L75.519 273.78" stroke="#F8F8F8" stroke-width="3.5"/>
<path opacity="0.87" d="M258.025 182.52L166.772 273.78" stroke="#F8F8F8" stroke-width="3.5"/>
<path opacity="0.87" d="M258.025 182.52L349.278 273.78" stroke="#F8F8F8" stroke-width="3.5"/>
<path opacity="0.87" d="M349.279 182.52L440.532 273.78" stroke="#F8F8F8" stroke-width="3.5"/>
<path opacity="0.87" d="M440.532 182.52L531.785 273.78" stroke="#F8F8F8" stroke-width="3.5"/>
<path opacity="0.87" d="M623.038 182.52L531.785 273.78" stroke="#F8F8F8" stroke-width="3.5"/>
<path opacity="0.87" d="M714.291 182.52L623.038 273.78" stroke="#F8F8F8" stroke-width="3.5"/>
<path opacity="0.87" d="M805.544 182.52L714.291 273.78" stroke="#F8F8F8" stroke-width="3.5"/>
<path opacity="0.87" d="M896.797 182.52L805.544 273.78" stroke="#F8F8F8" stroke-width="3.5"/>
<path opacity="0.87" d="M896.797 182.52L988.051 273.78" stroke="#F8F8F8" stroke-width="3.5"/>
<path opacity="0.87" d="M1079.3 182.52L988.051 273.78" stroke="#F8F8F8" stroke-width="3.5"/>
<path opacity="0.87" d="M1170.56 182.52L1079.3 273.78" stroke="#F8F8F8" stroke-width="3.5"/>
<path opacity="0.87" d="M1261.81 182.52L1170.56 273.78" stroke="#F8F8F8" stroke-width="3.5"/>
<path opacity="0.87" d="M1353.06 182.52L1261.81 273.78" stroke="#F8F8F8" stroke-width="3.5"/>
<path opacity="0.87" d="M1444.32 182.52L1353.06 273.78" stroke="#F8F8F8" stroke-width="3.5"/>
<path opacity="0.81" d="M75.519 273.78L-15.7342 365.04" stroke="#F8F8F8" stroke-width="3.5"/>
<path opacity="0.81" d="M166.772 273.78L75.519 365.04" stroke="#F8F8F8" stroke-width="3.5"/>
<path opacity="0.81" d="M258.025 273.78L166.772 365.04" stroke="#F8F8F8" stroke-width="3.5"/>
<path opacity="0.81" d="M258.025 273.78L349.278 365.04" stroke="#F8F8F8" stroke-width="3.5"/>
<path opacity="0.81" d="M349.279 273.78L440.532 365.04" stroke="#F8F8F8" stroke-width="3.5"/>
<path opacity="0.81" d="M531.785 273.78L440.532 365.04" stroke="#F8F8F8" stroke-width="3.5"/>
<path opacity="0.81" d="M531.785 273.78L623.038 365.04" stroke="#F8F8F8" stroke-width="3.5"/>
<path opacity="0.81" d="M714.291 273.78L623.038 365.04" stroke="#F8F8F8" stroke-width="3.5"/>
<path opacity="0.81" d="M714.291 273.78L805.544 365.04" stroke="#F8F8F8" stroke-width="3.5"/>
<path opacity="0.81" d="M896.797 273.78L805.544 365.04" stroke="#F8F8F8" stroke-width="3.5"/>
<path opacity="0.81" d="M896.797 273.78L988.051 365.04" stroke="#F8F8F8" stroke-width="3.5"/>
<path opacity="0.81" d="M988.051 273.78L1079.3 365.04" stroke="#F8F8F8" stroke-width="3.5"/>
<path opacity="0.81" d="M1170.56 273.78L1079.3 365.04" stroke="#F8F8F8" stroke-width="3.5"/>
<path opacity="0.81" d="M1170.56 273.78L1261.81 365.04" stroke="#F8F8F8" stroke-width="3.5"/>
<path opacity="0.81" d="M1261.81 273.78L1353.06 365.04" stroke="#F8F8F8" stroke-width="3.5"/>
<path opacity="0.81" d="M1444.32 273.78L1353.06 365.04" stroke="#F8F8F8" stroke-width="3.5"/>
<path opacity="0.74" d="M-15.7342 365.04L75.519 456.3" stroke="#F8F8F8" stroke-width="3.5"/>
<path opacity="0.74" d="M75.519 365.04L166.772 456.3" stroke="#F8F8F8" stroke-width="3.5"/>
<path opacity="0.74" d="M166.772 365.04L258.025 456.3" stroke="#F8F8F8" stroke-width="3.5"/>
<path opacity="0.74" d="M258.025 365.04L349.278 456.3" stroke="#F8F8F8" stroke-width="3.5"/>
<path opacity="0.74" d="M349.279 365.04L440.532 456.3" stroke="#F8F8F8" stroke-width="3.5"/>
<path opacity="0.74" d="M440.532 365.04L531.785 456.3" stroke="#F8F8F8" stroke-width="3.5"/>
<path opacity="0.74" d="M531.785 365.04L623.038 456.3" stroke="#F8F8F8" stroke-width="3.5"/>
<path opacity="0.74" d="M714.291 365.04L623.038 456.3" stroke="#F8F8F8" stroke-width="3.5"/>
<path opacity="0.74" d="M714.291 365.04L805.544 456.3" stroke="#F8F8F8" stroke-width="3.5"/>
<path opacity="0.74" d="M805.544 365.04L896.797 456.3" stroke="#F8F8F8" stroke-width="3.5"/>
<path opacity="0.74" d="M988.051 365.04L896.797 456.3" stroke="#F8F8F8" stroke-width="3.5"/>
<path opacity="0.74" d="M1079.3 365.04L988.051 456.3" stroke="#F8F8F8" stroke-width="3.5"/>
<path opacity="0.74" d="M1079.3 365.04L1170.56 456.3" stroke="#F8F8F8" stroke-width="3.5"/>
<path opacity="0.74" d="M1170.56 365.04L1261.81 456.3" stroke="#F8F8F8" stroke-width="3.5"/>
<path opacity="0.74" d="M1353.06 365.04L1261.81 456.3" stroke="#F8F8F8" stroke-width="3.5"/>
<path opacity="0.74" d="M1353.06 365.04L1444.32 456.3" stroke="#F8F8F8" stroke-width="3.5"/>
<path opacity="0.68" d="M75.519 456.3L-15.7342 547.56" stroke="#F8F8F8" stroke-width="3.5"/>
<path opacity="0.68" d="M166.772 456.3L75.519 547.56" stroke="#F8F8F8" stroke-width="3.5"/>
<path opacity="0.68" d="M258.025 456.3L166.772 547.56" stroke="#F8F8F8" stroke-width="3.5"/>
<path opacity="0.68" d="M258.025 456.3L349.278 547.56" stroke="#F8F8F8" stroke-width="3.5"/>
<path opacity="0.68" d="M440.532 456.3L349.279 547.56" stroke="#F8F8F8" stroke-width="3.5"/>
<path opacity="0.68" d="M531.785 456.3L440.532 547.56" stroke="#F8F8F8" stroke-width="3.5"/>
<path opacity="0.68" d="M531.785 456.3L623.038 547.56" stroke="#F8F8F8" stroke-width="3.5"/>
<path opacity="0.68" d="M623.038 456.3L714.291 547.56" stroke="#F8F8F8" stroke-width="3.5"/>
<path opacity="0.68" d="M714.291 456.3L805.544 547.56" stroke="#F8F8F8" stroke-width="3.5"/>
<path opacity="0.68" d="M805.544 456.3L896.797 547.56" stroke="#F8F8F8" stroke-width="3.5"/>
<path opacity="0.68" d="M896.797 456.3L988.051 547.56" stroke="#F8F8F8" stroke-width="3.5"/>
<path opacity="0.68" d="M988.051 456.3L1079.3 547.56" stroke="#F8F8F8" stroke-width="3.5"/>
<path opacity="0.68" d="M1170.56 456.3L1079.3 547.56" stroke="#F8F8F8" stroke-width="3.5"/>
<path opacity="0.68" d="M1170.56 456.3L1261.81 547.56" stroke="#F8F8F8" stroke-width="3.5"/>
<path opacity="0.68" d="M1261.81 456.3L1353.06 547.56" stroke="#F8F8F8" stroke-width="3.5"/>
<path opacity="0.68" d="M1353.06 456.3L1444.32 547.56" stroke="#F8F8F8" stroke-width="3.5"/>
<path opacity="0.62" d="M-15.7342 547.56L75.519 638.82" stroke="#F8F8F8" stroke-width="3.5"/>
<path opacity="0.62" d="M75.519 547.56L166.772 638.82" stroke="#F8F8F8" stroke-width="3.5"/>
<path opacity="0.62" d="M258.025 547.56L166.772 638.82" stroke="#F8F8F8" stroke-width="3.5"/>
<path opacity="0.62" d="M349.278 547.56L258.025 638.82" stroke="#F8F8F8" stroke-width="3.5"/>
<path opacity="0.62" d="M440.532 547.56L349.279 638.82" stroke="#F8F8F8" stroke-width="3.5"/>
<path opacity="0.62" d="M531.785 547.56L440.532 638.82" stroke="#F8F8F8" stroke-width="3.5"/>
<path opacity="0.62" d="M531.785 547.56L623.038 638.82" stroke="#F8F8F8" stroke-width="3.5"/>
<path opacity="0.62" d="M623.038 547.56L714.291 638.82" stroke="#F8F8F8" stroke-width="3.5"/>
<path opacity="0.62" d="M714.291 547.56L805.544 638.82" stroke="#F8F8F8" stroke-width="3.5"/>
<path opacity="0.62" d="M805.544 547.56L896.797 638.82" stroke="#F8F8F8" stroke-width="3.5"/>
<path opacity="0.62" d="M988.051 547.56L896.797 638.82" stroke="#F8F8F8" stroke-width="3.5"/>
<path opacity="0.62" d="M1079.3 547.56L988.051 638.82" stroke="#F8F8F8" stroke-width="3.5"/>
<path opacity="0.62" d="M1170.56 547.56L1079.3 638.82" stroke="#F8F8F8" stroke-width="3.5"/>
<path opacity="0.62" d="M1261.81 547.56L1170.56 638.82" stroke="#F8F8F8" stroke-width="3.5"/>
<path opacity="0.62" d="M1261.81 547.56L1353.06 638.82" stroke="#F8F8F8" stroke-width="3.5"/>
<path opacity="0.62" d="M1353.06 547.56L1444.32 638.82" stroke="#F8F8F8" stroke-width="3.5"/>
<path opacity="0.55" d="M-15.7342 638.82L75.519 730.08" stroke="#F8F8F8" stroke-width="3.5"/>
<path opacity="0.55" d="M75.519 638.82L166.772 730.08" stroke="#F8F8F8" stroke-width="3.5"/>
<path opacity="0.55" d="M258.025 638.82L166.772 730.08" stroke="#F8F8F8" stroke-width="3.5"/>
<path opacity="0.55" d="M258.025 638.82L349.278 730.08" stroke="#F8F8F8" stroke-width="3.5"/>
<path opacity="0.55" d="M440.532 638.82L349.279 730.08" stroke="#F8F8F8" stroke-width="3.5"/>
<path opacity="0.55" d="M440.532 638.82L531.785 730.08" stroke="#F8F8F8" stroke-width="3.5"/>
<path opacity="0.55" d="M623.038 638.82L531.785 730.08" stroke="#F8F8F8" stroke-width="3.5"/>
<path opacity="0.55" d="M623.038 638.82L714.291 730.08" stroke="#F8F8F8" stroke-width="3.5"/>
<path opacity="0.55" d="M714.291 638.82L805.544 730.08" stroke="#F8F8F8" stroke-width="3.5"/>
<path opacity="0.55" d="M805.544 638.82L896.797 730.08" stroke="#F8F8F8" stroke-width="3.5"/>
<path opacity="0.55" d="M896.797 638.82L988.051 730.08" stroke="#F8F8F8" stroke-width="3.5"/>
<path opacity="0.55" d="M1079.3 638.82L988.051 730.08" stroke="#F8F8F8" stroke-width="3.5"/>
<path opacity="0.55" d="M1079.3 638.82L1170.56 730.08" stroke="#F8F8F8" stroke-width="3.5"/>
<path opacity="0.55" d="M1170.56 638.82L1261.81 730.08" stroke="#F8F8F8" stroke-width="3.5"/>
<path opacity="0.55" d="M1353.06 638.82L1261.81 730.08" stroke="#F8F8F8" stroke-width="3.5"/>
<path opacity="0.55" d="M1444.32 638.82L1353.06 730.08" stroke="#F8F8F8" stroke-width="3.5"/>
<path opacity="0.49" d="M-15.7342 730.08L75.519 821.34" stroke="#F8F8F8" stroke-width="3.5"/>
<path opacity="0.49" d="M166.772 730.08L75.519 821.34" stroke="#F8F8F8" stroke-width="3.5"/>
<path opacity="0.49" d="M166.772 730.08L258.025 821.34" stroke="#F8F8F8" stroke-width="3.5"/>
<path opacity="0.49" d="M349.278 730.08L258.025 821.34" stroke="#F8F8F8" stroke-width="3.5"/>
<path opacity="0.49" d="M349.279 730.08L440.532 821.34" stroke="#F8F8F8" stroke-width="3.5"/>
<path opacity="0.49" d="M531.785 730.08L440.532 821.34" stroke="#F8F8F8" stroke-width="3.5"/>
<path opacity="0.49" d="M531.785 730.08L623.038 821.34" stroke="#F8F8F8" stroke-width="3.5"/>
<path opacity="0.49" d="M623.038 730.08L714.291 821.34" stroke="#F8F8F8" stroke-width="3.5"/>
<path opacity="0.49" d="M805.544 730.08L714.291 821.34" stroke="#F8F8F8" stroke-width="3.5"/>
<path opacity="0.49" d="M805.544 730.08L896.797 821.34" stroke="#F8F8F8" stroke-width="3.5"/>
<path opacity="0.49" d="M896.797 730.08L988.051 821.34" stroke="#F8F8F8" stroke-width="3.5"/>
<path opacity="0.49" d="M1079.3 730.08L988.051 821.34" stroke="#F8F8F8" stroke-width="3.5"/>
<path opacity="0.49" d="M1170.56 730.08L1079.3 821.34" stroke="#F8F8F8" stroke-width="3.5"/>
<path opacity="0.49" d="M1261.81 730.08L1170.56 821.34" stroke="#F8F8F8" stroke-width="3.5"/>
<path opacity="0.49" d="M1353.06 730.08L1261.81 821.34" stroke="#F8F8F8" stroke-width="3.5"/>
<path opacity="0.49" d="M1353.06 730.08L1444.32 821.34" stroke="#F8F8F8" stroke-width="3.5"/>
<path opacity="0.42" d="M-15.7342 821.34L75.519 912.6" stroke="#F8F8F8" stroke-width="3.5"/>
<path opacity="0.42" d="M166.772 821.34L75.519 912.6" stroke="#F8F8F8" stroke-width="3.5"/>
<path opacity="0.42" d="M258.025 821.34L166.772 912.6" stroke="#F8F8F8" stroke-width="3.5"/>
<path opacity="0.42" d="M258.025 821.34L349.278 912.6" stroke="#F8F8F8" stroke-width="3.5"/>
<path opacity="0.42" d="M440.532 821.34L349.279 912.6" stroke="#F8F8F8" stroke-width="3.5"/>
<path opacity="0.42" d="M440.532 821.34L531.785 912.6" stroke="#F8F8F8" stroke-width="3.5"/>
<path opacity="0.42" d="M531.785 821.34L623.038 912.6" stroke="#F8F8F8" stroke-width="3.5"/>
<path opacity="0.42" d="M623.038 821.34L714.291 912.6" stroke="#F8F8F8" stroke-width="3.5"/>
<path opacity="0.42" d="M805.544 821.34L714.291 912.6" stroke="#F8F8F8" stroke-width="3.5"/>
<path opacity="0.42" d="M896.797 821.34L805.544 912.6" stroke="#F8F8F8" stroke-width="3.5"/>
<path opacity="0.42" d="M988.051 821.34L896.797 912.6" stroke="#F8F8F8" stroke-width="3.5"/>
<path opacity="0.42" d="M1079.3 821.34L988.051 912.6" stroke="#F8F8F8" stroke-width="3.5"/>
<path opacity="0.42" d="M1079.3 821.34L1170.56 912.6" stroke="#F8F8F8" stroke-width="3.5"/>
<path opacity="0.42" d="M1170.56 821.34L1261.81 912.6" stroke="#F8F8F8" stroke-width="3.5"/>
<path opacity="0.42" d="M1261.81 821.34L1353.06 912.6" stroke="#F8F8F8" stroke-width="3.5"/>
<path opacity="0.42" d="M1353.06 821.34L1444.32 912.6" stroke="#F8F8F8" stroke-width="3.5"/>
<path opacity="0.36" d="M-15.7342 912.6L75.519 1003.86" stroke="#F8F8F8" stroke-width="3.5"/>
<path opacity="0.36" d="M166.772 912.6L75.519 1003.86" stroke="#F8F8F8" stroke-width="3.5"/>
<path opacity="0.36" d="M166.772 912.6L258.025 1003.86" stroke="#F8F8F8" stroke-width="3.5"/>
<path opacity="0.36" d="M349.278 912.6L258.025 1003.86" stroke="#F8F8F8" stroke-width="3.5"/>
<path opacity="0.36" d="M349.279 912.6L440.532 1003.86" stroke="#F8F8F8" stroke-width="3.5"/>
<path opacity="0.36" d="M531.785 912.6L440.532 1003.86" stroke="#F8F8F8" stroke-width="3.5"/>
<path opacity="0.36" d="M623.038 912.6L531.785 1003.86" stroke="#F8F8F8" stroke-width="3.5"/>
<path opacity="0.36" d="M714.291 912.6L623.038 1003.86" stroke="#F8F8F8" stroke-width="3.5"/>
<path opacity="0.36" d="M714.291 912.6L805.544 1003.86" stroke="#F8F8F8" stroke-width="3.5"/>
<path opacity="0.36" d="M805.544 912.6L896.797 1003.86" stroke="#F8F8F8" stroke-width="3.5"/>
<path opacity="0.36" d="M988.051 912.6L896.797 1003.86" stroke="#F8F8F8" stroke-width="3.5"/>
<path opacity="0.36" d="M988.051 912.6L1079.3 1003.86" stroke="#F8F8F8" stroke-width="3.5"/>
<path opacity="0.36" d="M1079.3 912.6L1170.56 1003.86" stroke="#F8F8F8" stroke-width="3.5"/>
<path opacity="0.36" d="M1261.81 912.6L1170.56 1003.86" stroke="#F8F8F8" stroke-width="3.5"/>
<path opacity="0.36" d="M1261.81 912.6L1353.06 1003.86" stroke="#F8F8F8" stroke-width="3.5"/>
<path opacity="0.36" d="M1444.32 912.6L1353.06 1003.86" stroke="#F8F8F8" stroke-width="3.5"/>
<path opacity="0.29" d="M-15.7342 1003.86L75.519 1095.12" stroke="#F8F8F8" stroke-width="3.5"/>
<path opacity="0.29" d="M75.519 1003.86L166.772 1095.12" stroke="#F8F8F8" stroke-width="3.5"/>
<path opacity="0.29" d="M258.025 1003.86L166.772 1095.12" stroke="#F8F8F8" stroke-width="3.5"/>
<path opacity="0.29" d="M349.278 1003.86L258.025 1095.12" stroke="#F8F8F8" stroke-width="3.5"/>
<path opacity="0.29" d="M440.532 1003.86L349.279 1095.12" stroke="#F8F8F8" stroke-width="3.5"/>
<path opacity="0.29" d="M531.785 1003.86L440.532 1095.12" stroke="#F8F8F8" stroke-width="3.5"/>
<path opacity="0.29" d="M623.038 1003.86L531.785 1095.12" stroke="#F8F8F8" stroke-width="3.5"/>
<path opacity="0.29" d="M623.038 1003.86L714.291 1095.12" stroke="#F8F8F8" stroke-width="3.5"/>
<path opacity="0.29" d="M714.291 1003.86L805.544 1095.12" stroke="#F8F8F8" stroke-width="3.5"/>
<path opacity="0.29" d="M896.797 1003.86L805.544 1095.12" stroke="#F8F8F8" stroke-width="3.5"/>
<path opacity="0.29" d="M896.797 1003.86L988.051 1095.12" stroke="#F8F8F8" stroke-width="3.5"/>
<path opacity="0.29" d="M1079.3 1003.86L988.051 1095.12" stroke="#F8F8F8" stroke-width="3.5"/>
<path opacity="0.29" d="M1170.56 1003.86L1079.3 1095.12" stroke="#F8F8F8" stroke-width="3.5"/>
<path opacity="0.29" d="M1170.56 1003.86L1261.81 1095.12" stroke="#F8F8F8" stroke-width="3.5"/>
<path opacity="0.29" d="M1261.81 1003.86L1353.06 1095.12" stroke="#F8F8F8" stroke-width="3.5"/>
<path opacity="0.29" d="M1353.06 1003.86L1444.32 1095.12" stroke="#F8F8F8" stroke-width="3.5"/>
<path opacity="0.23" d="M75.519 1095.12L-15.7342 1186.38" stroke="#F8F8F8" stroke-width="3.5"/>
<path opacity="0.23" d="M166.772 1095.12L75.519 1186.38" stroke="#F8F8F8" stroke-width="3.5"/>
<path opacity="0.23" d="M166.772 1095.12L258.025 1186.38" stroke="#F8F8F8" stroke-width="3.5"/>
<path opacity="0.23" d="M258.025 1095.12L349.278 1186.38" stroke="#F8F8F8" stroke-width="3.5"/>
<path opacity="0.23" d="M349.279 1095.12L440.532 1186.38" stroke="#F8F8F8" stroke-width="3.5"/>
<path opacity="0.23" d="M531.785 1095.12L440.532 1186.38" stroke="#F8F8F8" stroke-width="3.5"/>
<path opacity="0.23" d="M623.038 1095.12L531.785 1186.38" stroke="#F8F8F8" stroke-width="3.5"/>
<path opacity="0.23" d="M714.291 1095.12L623.038 1186.38" stroke="#F8F8F8" stroke-width="3.5"/>
<path opacity="0.23" d="M714.291 1095.12L805.544 1186.38" stroke="#F8F8F8" stroke-width="3.5"/>
<path opacity="0.23" d="M896.797 1095.12L805.544 1186.38" stroke="#F8F8F8" stroke-width="3.5"/>
<path opacity="0.23" d="M988.051 1095.12L896.797 1186.38" stroke="#F8F8F8" stroke-width="3.5"/>
<path opacity="0.23" d="M1079.3 1095.12L988.051 1186.38" stroke="#F8F8F8" stroke-width="3.5"/>
<path opacity="0.23" d="M1079.3 1095.12L1170.56 1186.38" stroke="#F8F8F8" stroke-width="3.5"/>
<path opacity="0.23" d="M1170.56 1095.12L1261.81 1186.38" stroke="#F8F8F8" stroke-width="3.5"/>
<path opacity="0.23" d="M1261.81 1095.12L1353.06 1186.38" stroke="#F8F8F8" stroke-width="3.5"/>
<path opacity="0.23" d="M1353.06 1095.12L1444.32 1186.38" stroke="#F8F8F8" stroke-width="3.5"/>
<path opacity="0.17" d="M75.519 1186.38L-15.7342 1277.64" stroke="#F8F8F8" stroke-width="3.5"/>
<path opacity="0.17" d="M75.519 1186.38L166.772 1277.64" stroke="#F8F8F8" stroke-width="3.5"/>
<path opacity="0.17" d="M258.025 1186.38L166.772 1277.64" stroke="#F8F8F8" stroke-width="3.5"/>
<path opacity="0.17" d="M349.278 1186.38L258.025 1277.64" stroke="#F8F8F8" stroke-width="3.5"/>
<path opacity="0.17" d="M440.532 1186.38L349.279 1277.64" stroke="#F8F8F8" stroke-width="3.5"/>
<path opacity="0.17" d="M531.785 1186.38L440.532 1277.64" stroke="#F8F8F8" stroke-width="3.5"/>
<path opacity="0.17" d="M623.038 1186.38L531.785 1277.64" stroke="#F8F8F8" stroke-width="3.5"/>
<path opacity="0.17" d="M714.291 1186.38L623.038 1277.64" stroke="#F8F8F8" stroke-width="3.5"/>
<path opacity="0.17" d="M805.544 1186.38L714.291 1277.64" stroke="#F8F8F8" stroke-width="3.5"/>
<path opacity="0.17" d="M805.544 1186.38L896.797 1277.64" stroke="#F8F8F8" stroke-width="3.5"/>
<path opacity="0.17" d="M896.797 1186.38L988.051 1277.64" stroke="#F8F8F8" stroke-width="3.5"/>
<path opacity="0.17" d="M1079.3 1186.38L988.051 1277.64" stroke="#F8F8F8" stroke-width="3.5"/>
<path opacity="0.17" d="M1079.3 1186.38L1170.56 1277.64" stroke="#F8F8F8" stroke-width="3.5"/>
<path opacity="0.17" d="M1170.56 1186.38L1261.81 1277.64" stroke="#F8F8F8" stroke-width="3.5"/>
<path opacity="0.17" d="M1261.81 1186.38L1353.06 1277.64" stroke="#F8F8F8" stroke-width="3.5"/>
<path opacity="0.17" d="M1444.32 1186.38L1353.06 1277.64" stroke="#F8F8F8" stroke-width="3.5"/>
<path opacity="0.1" d="M-15.7342 1277.64L75.519 1368.9" stroke="#F8F8F8" stroke-width="3.5"/>
<path opacity="0.1" d="M75.519 1277.64L166.772 1368.9" stroke="#F8F8F8" stroke-width="3.5"/>
<path opacity="0.1" d="M258.025 1277.64L166.772 1368.9" stroke="#F8F8F8" stroke-width="3.5"/>
<path opacity="0.1" d="M258.025 1277.64L349.278 1368.9" stroke="#F8F8F8" stroke-width="3.5"/>
<path opacity="0.1" d="M440.532 1277.64L349.279 1368.9" stroke="#F8F8F8" stroke-width="3.5"/>
<path opacity="0.1" d="M531.785 1277.64L440.532 1368.9" stroke="#F8F8F8" stroke-width="3.5"/>
<path opacity="0.1" d="M531.785 1277.64L623.038 1368.9" stroke="#F8F8F8" stroke-width="3.5"/>
<path opacity="0.1" d="M714.291 1277.64L623.038 1368.9" stroke="#F8F8F8" stroke-width="3.5"/>
<path opacity="0.1" d="M805.544 1277.64L714.291 1368.9" stroke="#F8F8F8" stroke-width="3.5"/>
<path opacity="0.1" d="M805.544 1277.64L896.797 1368.9" stroke="#F8F8F8" stroke-width="3.5"/>
<path opacity="0.1" d="M896.797 1277.64L988.051 1368.9" stroke="#F8F8F8" stroke-width="3.5"/>
<path opacity="0.1" d="M988.051 1277.64L1079.3 1368.9" stroke="#F8F8F8" stroke-width="3.5"/>
<path opacity="0.1" d="M1079.3 1277.64L1170.56 1368.9" stroke="#F8F8F8" stroke-width="3.5"/>
<path opacity="0.1" d="M1170.56 1277.64L1261.81 1368.9" stroke="#F8F8F8" stroke-width="3.5"/>
<path opacity="0.1" d="M1261.81 1277.64L1353.06 1368.9" stroke="#F8F8F8" stroke-width="3.5"/>
<path opacity="0.1" d="M1444.32 1277.64L1353.06 1368.9" stroke="#F8F8F8" stroke-width="3.5"/>
</g>
<defs>
<clipPath id="clip0_138_67">
<rect width="2403" height="1352" fill="white" transform="translate(-472)"/>
</clipPath>
</defs>
</svg>
